<svg width="191" height="43" viewBox="0 0 191 43" fill="none" xmlns="http://www.w3.org/2000/svg">
<path d="M50.022 39.27C52.668 39.27 54.36 37.47 54.36 34.842C54.36 32.142 52.92 30.468 50.544 30.468C49.194 30.468 48.186 31.044 47.592 32.142L48.06 27.894H53.748V26.49H46.836L46.098 33.744L47.646 33.906C47.988 32.592 48.816 31.818 50.148 31.818C51.876 31.818 52.74 33.06 52.74 34.932C52.74 36.768 51.768 37.884 50.112 37.884C48.654 37.884 47.826 36.984 47.574 35.742L45.9 35.94C46.224 37.974 47.808 39.27 50.022 39.27ZM58.1922 36.876H56.0862V39H58.1922V36.876ZM64.6283 39.27C67.7963 39.27 69.4523 36.75 69.4523 32.754C69.4523 28.74 67.7963 26.22 64.6283 26.22C61.4603 26.22 59.8043 28.74 59.8043 32.754C59.8043 36.75 61.4603 39.27 64.6283 39.27ZM64.6283 37.92C62.4683 37.92 61.4243 35.922 61.4243 32.754C61.4243 29.568 62.4683 27.57 64.6283 27.57C66.7883 27.57 67.8323 29.568 67.8323 32.754C67.8323 35.922 66.7883 37.92 64.6283 37.92ZM81.0354 39.216C83.2854 39.216 84.7434 37.308 84.7434 34.5C84.7434 31.746 83.3214 29.784 81.1254 29.784C79.7214 29.784 78.7314 30.558 78.2634 31.566V25.95H76.7334V39H77.9034L78.1734 37.452C78.6414 38.496 79.6674 39.216 81.0354 39.216ZM80.6214 37.866C79.1094 37.866 78.2274 36.642 78.2274 34.77V34.302C78.2274 32.34 79.1274 31.134 80.6394 31.134C82.2414 31.134 83.1234 32.484 83.1234 34.5C83.1234 36.552 82.1874 37.866 80.6214 37.866ZM87.1208 42.6C88.6328 42.6 89.7128 41.844 90.5408 39.576L94.0508 30H92.3948L90.3068 36.264C90.1628 36.714 90.0548 37.074 90.0008 37.326H89.9648C89.9108 37.074 89.8208 36.714 89.6588 36.264L87.3548 30H85.6448L89.2268 38.892L88.9928 39.558C88.5788 40.728 88.0208 41.214 86.9408 41.214C86.7428 41.214 86.5268 41.214 86.2928 41.178V42.528C86.5808 42.582 86.8508 42.6 87.1208 42.6ZM99.5421 39H107.75V37.542H101.72C102.944 36.696 103.826 35.976 104.798 35.076C106.724 33.294 107.606 31.764 107.606 30C107.606 27.57 106.148 26.22 103.718 26.22C101.198 26.22 99.6861 27.642 99.6861 29.856C99.6861 30.18 99.7221 30.504 99.8121 30.864L101.432 31.026C101.342 30.576 101.288 30.198 101.288 29.874C101.288 28.506 102.17 27.624 103.628 27.624C105.068 27.624 105.914 28.488 105.914 30.018C105.914 31.512 105.374 32.556 103.79 34.086C102.188 35.616 100.568 36.912 99.5421 37.668V39ZM118.199 35.832V34.572H116.147V26.49H114.347L108.749 34.734V35.832H114.617V39H116.147V35.832H118.199ZM114.617 29.982V34.572H110.387C110.783 34.104 111.089 33.672 111.575 32.934L113.717 29.712C114.149 29.064 114.383 28.668 114.617 28.074H114.653C114.617 28.722 114.617 28.974 114.617 29.982ZM132.738 39H134.664L131.388 33.456C133.53 32.97 134.268 31.404 134.268 29.964C134.268 28.092 133.386 26.22 130.038 26.22H125.304V39H127.014V33.69H129.606L132.738 39ZM127.014 27.66H129.84C131.802 27.66 132.468 28.65 132.468 29.964C132.468 31.242 131.82 32.25 129.84 32.25H127.014V27.66ZM143.853 33.87C143.853 31.17 142.449 29.784 140.019 29.784C137.445 29.784 135.933 31.602 135.933 34.608C135.933 37.578 137.463 39.216 140.037 39.216C141.855 39.216 143.169 38.352 143.799 36.714L142.539 36.156C142.143 37.254 141.297 37.866 140.145 37.866C138.543 37.866 137.481 36.714 137.463 34.95H143.853V33.87ZM142.305 33.708H137.463C137.499 32.016 138.399 30.99 139.983 30.99C141.459 30.99 142.305 31.854 142.305 33.51V33.708ZM148.106 39H149.744L153.002 30H151.346L149.33 36.066C149.168 36.552 149.042 37.02 148.952 37.434H148.898C148.808 37.02 148.682 36.552 148.52 36.066L146.504 30H144.848L148.106 39ZM154.688 28.326H156.434V26.4H154.688V28.326ZM154.796 39H156.326V30H154.796V39ZM166.669 33.87C166.669 31.17 165.265 29.784 162.835 29.784C160.261 29.784 158.749 31.602 158.749 34.608C158.749 37.578 160.279 39.216 162.853 39.216C164.671 39.216 165.985 38.352 166.615 36.714L165.355 36.156C164.959 37.254 164.113 37.866 162.961 37.866C161.359 37.866 160.297 36.714 160.279 34.95H166.669V33.87ZM165.121 33.708H160.279C160.315 32.016 161.215 30.99 162.799 30.99C164.275 30.99 165.121 31.854 165.121 33.51V33.708ZM170.472 39H172.146L173.856 32.52C173.928 32.232 174.018 31.782 174.054 31.512H174.09C174.126 31.782 174.216 32.232 174.288 32.52L175.998 39H177.672L180.21 30H178.626L177.006 36.426C176.934 36.75 176.862 37.128 176.808 37.488H176.772C176.718 37.128 176.61 36.75 176.538 36.426L174.9 30H173.244L171.606 36.426C171.534 36.75 171.426 37.128 171.372 37.488H171.336C171.282 37.128 171.21 36.75 171.138 36.426L169.518 30H167.934L170.472 39ZM185.348 39.216C187.544 39.216 188.786 38.082 188.786 36.462C188.786 35.148 188.066 34.32 186.446 34.014L184.7 33.69C183.818 33.528 183.314 33.168 183.314 32.412C183.314 31.53 184.016 31.026 185.168 31.026C186.392 31.026 187.094 31.656 187.292 32.556L188.804 32.214C188.624 30.702 187.256 29.784 185.24 29.784C183.116 29.784 181.82 30.936 181.82 32.484C181.82 33.852 182.684 34.716 184.214 35.004L185.978 35.328C186.788 35.472 187.274 35.796 187.274 36.588C187.274 37.362 186.608 37.956 185.402 37.956C184.088 37.956 183.242 37.308 183.026 36.174L181.478 36.444C181.784 38.226 183.224 39.216 185.348 39.216Z" fill="black"/>
<path d="M132.525 10.6189L135.76 8.00968C136.218 7.63914 135.981 6.9135 135.381 6.88263L131.215 6.6356C130.962 6.62016 130.741 6.46577 130.646 6.23418L129.116 2.40528C128.895 1.86491 128.121 1.86491 127.9 2.40528L126.369 6.21874C126.275 6.45033 126.054 6.60472 125.801 6.62016L121.619 6.86719C121.019 6.89806 120.782 7.6237 121.24 7.99424L124.475 10.588C124.665 10.7424 124.759 11.0049 124.696 11.2365L123.639 15.2043C123.497 15.7601 124.112 16.2079 124.617 15.8991L128.137 13.6913C128.358 13.5523 128.626 13.5523 128.831 13.6913L132.367 15.8991C132.872 16.2079 133.487 15.7601 133.345 15.2043L132.288 11.2519C132.241 11.0203 132.32 10.7733 132.525 10.6189Z" fill="#FF561D"/>
<path d="M113.525 10.6189L116.76 8.00968C117.218 7.63914 116.981 6.9135 116.381 6.88263L112.215 6.6356C111.962 6.62016 111.741 6.46577 111.646 6.23418L110.116 2.40528C109.895 1.86491 109.121 1.86491 108.9 2.40528L107.369 6.21874C107.275 6.45033 107.054 6.60472 106.801 6.62016L102.619 6.86719C102.019 6.89806 101.782 7.6237 102.24 7.99424L105.475 10.588C105.665 10.7424 105.759 11.0049 105.696 11.2365L104.639 15.2043C104.497 15.7601 105.112 16.2079 105.617 15.8991L109.137 13.6913C109.358 13.5523 109.626 13.5523 109.831 13.6913L113.367 15.8991C113.872 16.2079 114.487 15.7601 114.345 15.2043L113.288 11.2519C113.241 11.0203 113.32 10.7733 113.525 10.6189Z" fill="#FF561D"/>
<path d="M94.5247 10.6189L97.7602 8.00968C98.2179 7.63914 97.9812 6.9135 97.3814 6.88263L93.2147 6.6356C92.9622 6.62016 92.7412 6.46577 92.6465 6.23418L91.1155 2.40528C90.8946 1.86491 90.1212 1.86491 89.9002 2.40528L88.3693 6.21874C88.2746 6.45033 88.0536 6.60472 87.8011 6.62016L83.6186 6.86719C83.0188 6.89806 82.7821 7.6237 83.2398 7.99424L86.4753 10.588C86.6647 10.7424 86.7594 11.0049 86.6963 11.2365L85.6388 15.2043C85.4968 15.7601 86.1123 16.2079 86.6174 15.8991L90.137 13.6913C90.358 13.5523 90.6263 13.5523 90.8314 13.6913L94.3669 15.8991C94.8719 16.2079 95.4875 15.7601 95.3454 15.2043L94.2879 11.2519C94.2406 11.0203 94.3195 10.7733 94.5247 10.6189Z" fill="#FF561D"/>
<path d="M75.5247 10.6189L78.7602 8.00968C79.2179 7.63914 78.9812 6.9135 78.3814 6.88263L74.2147 6.6356C73.9622 6.62016 73.7412 6.46577 73.6465 6.23418L72.1155 2.40528C71.8946 1.86491 71.1212 1.86491 70.9002 2.40528L69.3693 6.21874C69.2746 6.45033 69.0536 6.60472 68.8011 6.62016L64.6186 6.86719C64.0188 6.89806 63.7821 7.6237 64.2398 7.99424L67.4753 10.588C67.6647 10.7424 67.7594 11.0049 67.6963 11.2365L66.6388 15.2043C66.4968 15.7601 67.1123 16.2079 67.6174 15.8991L71.137 13.6913C71.358 13.5523 71.6263 13.5523 71.8314 13.6913L75.3669 15.8991C75.8719 16.2079 76.4875 15.7601 76.3454 15.2043L75.2879 11.2519C75.2406 11.0203 75.3195 10.7733 75.5247 10.6189Z" fill="#FF561D"/>
<path d="M56.5247 10.6189L59.7602 8.00968C60.2179 7.63914 59.9812 6.9135 59.3814 6.88263L55.2147 6.6356C54.9622 6.62016 54.7412 6.46577 54.6465 6.23418L53.1155 2.40528C52.8946 1.86491 52.1212 1.86491 51.9002 2.40528L50.3693 6.21874C50.2746 6.45033 50.0536 6.60472 49.8011 6.62016L45.6186 6.86719C45.0188 6.89806 44.7821 7.6237 45.2398 7.99424L48.4753 10.588C48.6647 10.7424 48.7594 11.0049 48.6963 11.2365L47.6388 15.2043C47.4968 15.7601 48.1123 16.2079 48.6174 15.8991L52.137 13.6913C52.358 13.5523 52.6263 13.5523 52.8314 13.6913L56.3669 15.8991C56.8719 16.2079 57.4875 15.7601 57.3454 15.2043L56.2879 11.2519C56.2406 11.0203 56.3195 10.7733 56.5247 10.6189Z" fill="#FF561D"/>
<g clip-path="url(#clip0_6327_6)">
<path d="M28.8832 29.7646C26.6893 31.7127 23.852 32.7701 20.9245 32.7306C14.1781 32.7306 9.22365 27.752 9.22365 20.9197C9.22365 14.0874 14.0199 9.32073 20.9245 9.32073C23.8586 9.28086 26.7066 10.3164 28.9359 12.2337L30.4117 13.5048L36.9473 6.93737L35.3134 5.40144C31.3603 1.8524 26.225 -0.075612 20.9245 -0.000833162C8.802 -0.000833162 0 8.79109 0 20.8668C0 32.9424 9.01282 41.9992 20.9245 41.9992C26.2753 42.0712 31.4545 40.103 35.4188 36.491L37 35.008L30.359 28.4405L28.8832 29.7646Z" fill="black"/>
<path d="M20.6082 28.018C24.4797 28.018 27.6182 24.8642 27.6182 20.9738C27.6182 17.0835 24.4797 13.9297 20.6082 13.9297C16.7367 13.9297 13.5983 17.0835 13.5983 20.9738C13.5983 24.8642 16.7367 28.018 20.6082 28.018Z" fill="#FF561D"/>
</g>
<defs>
<clipPath id="clip0_6327_6">
<rect width="37" height="42" fill="white"/>
</clipPath>
</defs>
</svg>
