<svg width="97" height="27" viewBox="0 0 97 27" fill="none" xmlns="http://www.w3.org/2000/svg">
<rect width="97" height="27" rx="5" fill="black"/>
<path d="M15.3338 17H17.7338L19.0658 11.552L20.3858 17H22.9538L24.9578 8.42H22.6778L21.5138 13.82L20.2658 8.42H18.0818L16.9298 13.772L15.8258 8.42H13.3418L15.3338 17ZM28.2959 17.144C30.1919 17.144 31.2839 16.34 31.4759 14.924H29.4599C29.3759 15.344 29.0759 15.668 28.3679 15.668C27.5999 15.668 27.1199 15.188 27.0599 14.36H31.4759V13.796C31.4759 11.54 29.9999 10.556 28.2839 10.556C26.3879 10.556 24.8879 11.828 24.8879 13.844V13.94C24.8879 15.992 26.3279 17.144 28.2959 17.144ZM27.0839 13.148C27.1919 12.392 27.6359 11.972 28.2839 11.972C28.9799 11.972 29.3519 12.392 29.3879 13.148H27.0839ZM33.0539 11.864L34.6979 8.9L32.8019 8.264L31.8419 11.396L33.0539 11.864ZM34.9739 17H37.1219V14.024C37.1219 13.016 37.8419 12.608 39.1499 12.644V10.64C38.1779 10.628 37.5179 11.036 37.1219 11.972V10.724H34.9739V17ZM43.1201 17.144C45.0161 17.144 46.1081 16.34 46.3001 14.924H44.2841C44.2001 15.344 43.9001 15.668 43.1921 15.668C42.4241 15.668 41.9441 15.188 41.8841 14.36H46.3001V13.796C46.3001 11.54 44.8241 10.556 43.1081 10.556C41.2121 10.556 39.7121 11.828 39.7121 13.844V13.94C39.7121 15.992 41.1521 17.144 43.1201 17.144ZM41.9081 13.148C42.0161 12.392 42.4601 11.972 43.1081 11.972C43.8041 11.972 44.1761 12.392 44.2121 13.148H41.9081ZM49.5872 17H51.7352V13.484C51.7352 12.68 52.1672 12.296 52.8032 12.296C53.4272 12.296 53.7032 12.644 53.7032 13.352V17H55.8512V12.92C55.8512 11.312 55.0112 10.556 53.7992 10.556C52.7552 10.556 52.0712 11.084 51.7352 11.732V7.964H49.5872V17ZM57.1355 17H59.2835V10.724H57.1355V17ZM58.2035 10.124C58.8755 10.124 59.3915 9.656 59.3915 9.02C59.3915 8.384 58.8755 7.904 58.2035 7.904C57.5315 7.904 57.0275 8.384 57.0275 9.02C57.0275 9.656 57.5315 10.124 58.2035 10.124ZM60.6145 17H62.7625V14.024C62.7625 13.016 63.4825 12.608 64.7905 12.644V10.64C63.8185 10.628 63.1585 11.036 62.7625 11.972V10.724H60.6145V17ZM65.8073 17H67.9553V10.724H65.8073V17ZM66.8753 10.124C67.5473 10.124 68.0633 9.656 68.0633 9.02C68.0633 8.384 67.5473 7.904 66.8753 7.904C66.2033 7.904 65.6993 8.384 65.6993 9.02C65.6993 9.656 66.2033 10.124 66.8753 10.124ZM69.2864 17H71.4344V13.484C71.4344 12.68 71.8664 12.296 72.5024 12.296C73.1264 12.296 73.4024 12.644 73.4024 13.352V17H75.5504V12.92C75.5504 11.312 74.7104 10.556 73.4984 10.556C72.4544 10.556 71.7704 11.084 71.4344 11.732V10.724H69.2864V17ZM79.7147 19.328C81.9587 19.328 83.1947 18.344 83.1947 16.472V10.724H81.0467V11.612C80.6867 10.976 80.0987 10.556 79.1027 10.556C77.6267 10.556 76.4387 11.732 76.4387 13.58V13.676C76.4387 15.608 77.6387 16.688 79.1027 16.688C80.0387 16.688 80.7227 16.136 81.0467 15.536V16.496C81.0467 17.276 80.6627 17.816 79.7147 17.816C78.9347 17.816 78.6587 17.456 78.5627 17H76.4267C76.5947 18.428 77.5787 19.328 79.7147 19.328ZM79.8587 15.104C79.0907 15.104 78.6347 14.552 78.6347 13.688V13.592C78.6347 12.728 79.0667 12.164 79.8707 12.164C80.6627 12.164 81.1067 12.716 81.1067 13.58V13.664C81.1067 14.552 80.6267 15.104 79.8587 15.104Z" fill="white"/>
</svg>
